# xmcd
#
# Track frame offsets: 
#        150
#        13860
#        23407
#        34024
#        47097
#        56757
#        70644
#        84194
#        102018
#        112191
#        125928
#        142215
#
# Disc length: 2073 seconds
#
# Revision: 0
# Processed by: cddbd v1.5.2PL0 Copyright (c) Steve Scherf et al.
# Submitted via: ExactAudioCopy v1.0b3
#
DISCID=a208170c
DTITLE=ザ・ドリフターズ - ドリフの軍歌だよ全員集合!!
DYEAR=1971
DGENRE=Other
TTITLE0=月月火水木金金
TTITLE1=酋長の娘
TTITLE2=ズンドコ節（海軍小唄）
TTITLE3=麦と兵隊
TTITLE4=戦友
TTITLE5=加藤隼戦闘隊
TTITLE6=ほんとにほんとにご苦労さん
TTITLE7=可愛いスーちゃん
TTITLE8=ダンチョネ節
TTITLE9=ラバウル小唄
TTITLE10=ツーレロ節
TTITLE11=ドリフのラバさん
EXTD=
EXTT0=
EXTT1=
EXTT2=
EXTT3=
EXTT4=
EXTT5=
EXTT6=
EXTT7=
EXTT8=
EXTT9=
EXTT10=
EXTT11=
PLAYORDER=
